<svg width="195px" height="46px" viewBox="0 0 195 46" version="1.1" xmlns="http://www.w3.org/2000/svg" xmlns:xlink="http://www.w3.org/1999/xlink">
    <desc>Nimblist Logo</desc>
    <defs></defs>
    <g stroke="none" stroke-width="1" fill="#FFF" fill-rule="evenodd">
        <g class="logo header-svg">
            <path d="M12.6590806,10.89138 C12.6590806,12.0473775 13.4426766,13.4472577 14.5877391,14.8464132 L17.9629812,7.97058406 C18.4450561,6.87582914 18.8068815,6.02350754 18.8068815,5.5980715 C18.8068815,5.29367093 18.6259688,5.1719107 18.3847519,5.1719107 C17.2999936,5.1719107 12.6590806,8.39674487 12.6590806,10.89138 M0.0623167001,44.7222424 L11.8754846,20.4444847 C9.22389323,17.1587704 8.13877605,15.3943342 8.13877605,13.081977 C8.13877605,6.6931888 19.469869,0 26.0390816,0 C27.9677401,0 28.6913909,0.608438765 28.6913909,1.46039799 C28.6913909,2.00795664 28.5707824,2.67727552 28.0883486,3.71187509 L19.711086,20.9311632 L31.9456655,35.4126581 L47.7371178,2.98167609 C47.8577263,2.79903575 48.0982253,2.61639541 48.279138,2.61639541 L55.5723602,2.61639541 C55.8132182,2.61639541 56.0544351,2.79903575 55.9338267,3.16395406 L35.1403539,45.6350817 C35.0800497,45.817722 34.8388328,46 34.6579201,46 L33.8143788,46 C33.6334661,46 33.3926081,45.8786022 33.2719996,45.6959618 L16.9988314,26.4679922 L8.01816759,44.8440026 C7.89755913,45.0262805 7.65634221,45.2089209 7.47614743,45.2089209 L0.424142079,45.2089209 C0.12262093,45.2089209 -0.118595989,45.0262805 0.0623167001,44.7222424" id="symbol"></path>
            <path d="M122.74142,29.305263 C123.538251,29.305263 124.053805,28.839589 124.053805,28.0945835 C124.053805,27.4195933 123.538251,26.861295 122.74142,26.861295 L120.654969,26.861295 L120.654969,29.305263 L122.74142,29.305263 Z M122.296002,23.9512882 C123.092833,23.9512882 123.655389,23.4159637 123.655389,22.6479845 C123.655389,21.9263174 123.092833,21.3676544 122.296002,21.3676544 L120.654969,21.3676544 L120.654969,23.9512882 L122.296002,23.9512882 Z M117.233,18.3883618 L122.905192,18.3883618 C125.24942,18.3883618 127.124728,20.1102981 127.124728,22.2986378 C127.124728,23.6023062 126.585673,24.4165976 125.600833,25.1616031 L125.600833,25.2086445 C127.054225,26.2322522 127.663783,27.210277 127.663783,28.6532465 C127.663783,30.5855931 126.116387,32.3542062 123.444614,32.3542062 L117.233,32.3542062 L117.233,18.3883618 Z M60.4431818,18.3883618 L64.0598601,18.3883618 L69.4960254,26.6747361 L69.4960254,18.3883618 L72.9021725,18.3883618 L72.9021725,32.3542062 L69.3326444,32.3542062 L63.8730867,24.0444941 L63.8730867,32.3542062 L60.4431818,32.3542062 L60.4431818,18.3883618 Z M82.1739795,32.3542062 L82.1739795,18.3883618 L85.6509071,18.3883618 L85.6509071,32.3542062 L82.1739795,32.3542062 Z M94.6329702,18.3883618 L97.7866081,18.3883618 L101.308441,25.8384545 L104.853714,18.3883618 L107.961193,18.3883618 L107.961193,32.1851367 L104.600558,32.1851367 L104.600558,26.0455917 L101.584677,32.6451613 L101.032205,32.6451613 L98.0166849,25.9994812 L98.0166849,32.1851367 L94.6329702,32.1851367 L94.6329702,18.3883618 Z M136.066358,18.3883618 L139.511277,18.3883618 L139.511277,29.4213023 L145.627909,29.4213023 L145.627909,32.3542062 L136.066358,32.3542062 L136.066358,18.3883618 Z M154.030484,32.3542062 L154.030484,18.3883618 L157.507411,18.3883618 L157.507411,32.3542062 L154.030484,32.3542062 Z M169.84101,28.1005272 C169.84101,28.9119652 170.497073,29.5614062 171.293746,29.5614062 C172.160542,29.5614062 172.699857,29.0743255 172.699857,28.3555091 C172.699857,27.3123354 171.317243,27.0108611 170.169225,26.6167652 C167.801967,25.782081 166.489474,24.6924149 166.489474,22.30423 C166.489474,19.8466698 168.622136,17.8064516 171.270617,17.8064516 C174.387556,17.8064516 175.863789,19.7769311 176.051025,22.3507225 L172.816971,22.3507225 C172.816971,21.5625306 172.325383,20.9130897 171.364235,20.9130897 C170.614187,20.9130897 169.887636,21.353678 169.887636,22.2581008 C169.887636,23.3012745 171.176999,23.4865178 172.372009,23.8344845 C174.879511,24.5765471 176.051025,25.9676875 176.051025,28.1466564 C176.051025,30.6045799 173.94186,32.6451613 171.293746,32.6451613 C168.2238,32.6451613 166.489474,30.6045799 166.489474,28.1005272 L169.84101,28.1005272 Z M187.518944,21.4142522 L184.453601,21.4142522 L184.453601,18.3883618 L194.015152,18.3883618 L194.015152,21.4142522 L190.904297,21.4142522 L190.904297,32.3542062 L187.518944,32.3542062 L187.518944,21.4142522 Z"></path>
        </g>
    </g>
</svg>