<?xml version="1.0" encoding="utf-8"?>
<!-- Generator: Adobe Illustrator 19.1.0, SVG Export Plug-In . SVG Version: 6.00 Build 0)  -->
<svg version="1.1" id="Layer_1" xmlns="http://www.w3.org/2000/svg" xmlns:xlink="http://www.w3.org/1999/xlink" x="0px" y="0px"
	 viewBox="0 0 151.1 26.3" enable-background="new 0 0 151.1 26.3" xml:space="preserve">
<g>
	<g>
		<path fill="#FFFFFF" d="M39.7,14.5L2,19c-0.7,0-1.3-0.6-1.3-1.3v-0.3c0-0.7,0.6-1.3,1.3-1.3l37.7-4.4c0.7,0,1.3,0.6,1.3,1.3v0.3
			C41.1,13.9,40.5,14.5,39.7,14.5z"/>
		<path fill="#FFFFFF" d="M0.7,23.6v-0.5c0-0.7,0.6-1.3,1.3-1.3l31.1-3.7c0.5,0,0.6,0.8,0.1,0.9L2.3,24.9
			C1.5,25.1,0.7,24.4,0.7,23.6z"/>
		<path fill="#FFFFFF" d="M40.2,8.8L2,13.2c-0.7,0-1.3-0.6-1.3-1.3V2.6c0-0.7,0.6-1.3,1.3-1.3h38.1c0.7,0,1.3,0.6,1.3,1.3v4.8
			C41.5,8.2,40.9,8.8,40.2,8.8z"/>
	</g>
	<path fill="#FFFFFF" d="M150,21.7c-2.5,2.6-6.1,4.2-10,3.9c-6.2-0.4-11.1-5.3-11.6-11.5c-0.5-7.3,5.2-13.5,12.4-13.5
		c3.6,0,6.9,1.5,9.2,4c0.5,0.6,0.4,1.4-0.3,1.9L147.3,8c-0.4,0.3-1,0.2-1.4-0.1c-1.4-1.1-3-1.8-5.1-1.8c-4.2,0-7.6,3.8-6.9,8.2
		c0.6,3.6,4.2,6.2,7.8,5.8c1.6-0.2,2.8-0.7,4.2-1.8c0.4-0.3,1-0.3,1.4-0.1l2.4,1.6C150.3,20.2,150.5,21.1,150,21.7z"/>
	<path fill="#FFFFFF" d="M72,2.6v21.3c0,0.7-0.5,1.2-1.2,1.2h-3.9c-0.4,0-0.7-0.2-0.9-0.4L54.8,11.3c-0.1-0.1-0.4-0.1-0.4,0.1v12.4
		c0,0.7-0.5,1.2-1.2,1.2H50c-0.7,0-1.2-0.5-1.2-1.2V2.6c0-0.7,0.5-1.2,1.2-1.2h3.9c0.4,0,0.7,0.2,0.9,0.4l11.1,13.8
		c0.1,0.1,0.4,0.1,0.4-0.1v-13c0-0.7,0.5-1.2,1.2-1.2h3.3C71.4,1.4,72,1.9,72,2.6z"/>
	<path fill="#FFFFFF" d="M99.9,2.6v21.3c0,0.7-0.5,1.2-1.2,1.2h-3.9c-0.4,0-0.7-0.2-0.9-0.4L82.8,11.3c-0.1-0.1-0.4-0.1-0.4,0.1
		v12.4c0,0.7-0.5,1.2-1.2,1.2H78c-0.7,0-1.2-0.5-1.2-1.2V2.6c0-0.7,0.5-1.2,1.2-1.2h3.9c0.4,0,0.7,0.2,1,0.5l11.1,13.8
		c0.1,0.1,0.4,0.1,0.4-0.1v-13c0-0.7,0.5-1.2,1.2-1.2h3.3C99.4,1.4,99.9,1.9,99.9,2.6z"/>
	<path fill="#FFFFFF" d="M125.5,17.4c0,4.7-3.7,7.6-7.3,7.6H106c-0.7,0-1.2-0.5-1.2-1.2V2.6c0-0.7,0.5-1.2,1.2-1.2h11.5
		c3.4,0,7.1,2.5,7.1,7.1c0,1.6-0.4,2.9-1,4C124.6,13.7,125.5,15.4,125.5,17.4z M110.5,10c0,0.3,0.3,0.6,0.6,0.6h6.1
		c1.1,0,2.1-1,2.1-2.3c0-1.3-1-2.3-2.1-2.3h-6.1c-0.3,0-0.6,0.3-0.6,0.6V10z M120.3,17.7c0-1.5-1.1-2.5-2.3-2.5h-6.9
		c-0.3,0-0.6,0.3-0.6,0.6v3.8c0,0.3,0.3,0.6,0.6,0.6h6.9C119.2,20.2,120.3,19.1,120.3,17.7z"/>
</g>
</svg>
