<svg version="1.1" class="tower-marketing-logo" id="Tower_Marketing_Logo" xmlns="http://www.w3.org/2000/svg" xmlns:xlink="http://www.w3.org/1999/xlink" x="0px" y="0px" width="50px" height="70px" viewBox="0 0 35.9 49.9" style="enable-background:new 0 0 35.9 49.9;" xml:space="preserve"> <desc>Tower Marketing Logo</desc> <g> <path class="tm-path1" stroke="none" d="M22.8,0.1c-2.6-0.7-3.5,1.4-3.5,1.4s-1.2,3.7-3.1,9c1.7-0.4,3.4-0.7,5.2-1C21.4,3.3,23,0.2,22.8,0.1z M24,43.9c5.1,0.1,9.7,2.3,9.7,2.3c-8.3-13.6-11.2-24-12-31.2c-2.3,0.7-4.8,1.5-7.4,2.7C9.8,30,3.4,46.5,0,49.9c9.8-5.5,22.8-6.2,22.8-6.2c-3.2-0.5-10-0.3-10-0.3l5.5-27.4C19.2,30,24,43.9,24,43.9z"></path> <path class="tm-path2" stroke="none" d="M11.6,17.2c13.1-6.5,24.3-6,24.3-6C19.8,8.4,2.3,16.3,2.3,18.9c0,1.6,5.6,1.8,8.6,1.9C10.8,20.8,6.1,20,11.6,17.2z"></path> </g> </svg>