<?xml version="1.0" encoding="utf-8"?>
<!-- Generator: Adobe Illustrator 20.1.0, SVG Export Plug-In . SVG Version: 6.00 Build 0)  -->
<svg version="1.1" id="Layer_1" xmlns="http://www.w3.org/2000/svg" xmlns:xlink="http://www.w3.org/1999/xlink" x="0px" y="0px"
	 viewBox="0 0 173.5 76.9" style="enable-background:new 0 0 173.5 76.9;" xml:space="preserve">
<style type="text/css">
	.st0{fill:#ED1C29;}
	.st1{fill:#FFFFFF;}
	.st2{fill:#5C5B5B;}
</style>
<polygon class="st0" points="173.5,56.3 77.3,56.3 77.3,46.6 173.5,46.6 173.5,56.3 "/>
<polygon points="0,0 10.7,0 14.4,32.2 14.5,32.2 17.9,0 28,0 31.2,32.2 31.3,32.2 35,0 45.5,0 37.6,45.3 26,45.3 22.9,17.4 
	22.8,17.4 19.3,45.3 7.7,45.3 0,0 "/>
<path d="M53.8,29.2H59L56.6,7h-0.1L53.8,29.2L53.8,29.2z M49.6,0h13.8l8.5,45.3H61l-1-8h-7.3l-1.1,8H41.2L49.6,0L49.6,0z"/>
<path d="M83.2,18h2.6c3.6,0,3.6-2.4,3.6-5.3c0-3.2,0-5-4.1-5h-2V18L83.2,18z M72.8,0h13.8c9.3,0,13.2,2.8,13.2,10.9
	c0,5.3-0.7,8.8-6.3,10.5v0.1c3.7,0.7,6.1,3.4,6.1,7.2v8c0,3-0.1,7.1,1.1,8.6H90.3c-1.2-1.5-1.2-5.6-1.2-8.6v-7.3c0-2.6-1-3.7-4-3.7
	h-1.9v19.6H72.8V0L72.8,0z"/>
<polygon points="101.9,0 123.7,0 123.7,8.7 112.4,8.7 112.4,17.7 122.5,17.7 122.5,26.5 112.4,26.5 112.4,45.3 101.9,45.3 101.9,0 
	"/>
<polygon points="125.8,0 149,0 149,8.7 136.2,8.7 136.2,17.7 147.4,17.7 147.4,26.5 136.2,26.5 136.2,36.6 149.5,36.6 149.5,45.3 
	125.8,45.3 125.8,0 "/>
<polygon points="151.8,0 162.2,0 162.2,36.6 173.5,36.6 173.5,45.3 151.8,45.3 151.8,0 "/>
<path class="st1" d="M105.3,50.3c0-0.9,0.6-1.8,2.8-1.8c1.7,0,2.6,0.6,2.6,1.6V51h-2.3v-1.1c0-0.2,0-0.4-0.4-0.4
	c-0.3,0-0.4,0.2-0.4,0.4v3.3c0,0.2,0.1,0.4,0.4,0.4c0.4,0,0.4-0.2,0.4-0.5v-1.2h2.3v1c0,1-1,1.7-2.6,1.7c-2.3,0-2.7-0.9-2.7-1.8
	V50.3L105.3,50.3z"/>
<path class="st1" d="M113.4,53.2c0,0.2,0.1,0.4,0.4,0.4c0.4,0,0.4-0.2,0.4-0.4v-3.3c0-0.2-0.1-0.4-0.4-0.4c-0.3,0-0.4,0.2-0.4,0.4
	V53.2L113.4,53.2z M111.1,50.3c0-0.9,0.4-1.8,2.7-1.8c2.3,0,2.7,0.9,2.7,1.8v2.4c0,0.9-0.4,1.8-2.7,1.8c-2.3,0-2.7-0.9-2.7-1.8V50.3
	L111.1,50.3z"/>
<polygon class="st1" points="117.2,48.6 119.1,48.6 120.4,51.5 120.5,51.5 120.5,48.6 122.4,48.6 122.4,54.4 120.5,54.4 119.2,51.2 
	119.1,51.2 119.1,54.4 117.2,54.4 117.2,48.6 "/>
<path class="st1" d="M122.9,52.3h2.2v0.9c0,0.2,0.1,0.4,0.4,0.4c0.4,0,0.4-0.3,0.4-0.5v-0.2c0-1.1-3-0.9-3-2.6v-0.3
	c0-1.1,1-1.4,2.5-1.4c2.2,0,2.5,0.6,2.5,1.3v0.5h-2.1v-0.5c0-0.4-0.3-0.4-0.5-0.4c-0.2,0-0.4,0.1-0.4,0.4v0.3c0,0.8,3.1,0.8,3.1,2.5
	v0.5c0,1.2-1.1,1.5-2.7,1.5c-2.2,0-2.5-0.7-2.5-1.5V52.3L122.9,52.3z"/>
<polygon class="st1" points="129.6,49.8 128.3,49.8 128.3,48.6 133.3,48.6 133.3,49.8 131.9,49.8 131.9,54.4 129.6,54.4 129.6,49.8 
	"/>
<path class="st1" d="M135.8,50.8h0.2c0.3,0,0.7-0.1,0.7-0.4V50c0-0.3-0.4-0.4-0.7-0.4h-0.2V50.8L135.8,50.8z M133.6,48.6h2.5
	c1.5,0,2.6,0.1,2.6,1.2v0.5c0,0.6-0.4,1-1.4,1v0c1,0,1.4,0.4,1.4,1v2h-2.2v-2.2c0-0.3-0.1-0.5-0.6-0.5c-0.1,0-0.2,0-0.3,0v2.7h-2.2
	V48.6L133.6,48.6z"/>
<path class="st1" d="M139.4,48.6h2.3V53c0,0.3,0.1,0.5,0.4,0.5c0.3,0,0.4-0.1,0.4-0.5v-4.4h2.3v4.2c0,1-0.6,1.7-2.7,1.7
	c-2.1,0-2.7-0.7-2.7-1.7V48.6L139.4,48.6z"/>
<path class="st1" d="M145.4,50.3c0-0.9,0.6-1.8,2.8-1.8c1.7,0,2.6,0.6,2.6,1.6V51h-2.3v-1.1c0-0.2,0-0.4-0.4-0.4
	c-0.3,0-0.4,0.2-0.4,0.4v3.3c0,0.2,0.1,0.4,0.4,0.4c0.4,0,0.4-0.2,0.4-0.5v-1.2h2.3v1c0,1-1,1.7-2.6,1.7c-2.3,0-2.7-0.9-2.7-1.8
	V50.3L145.4,50.3z"/>
<polygon class="st1" points="152.3,49.8 151,49.8 151,48.6 156,48.6 156,49.8 154.6,49.8 154.6,54.4 152.3,54.4 152.3,49.8 "/>
<polygon class="st1" points="156.3,48.6 158.6,48.6 158.6,54.4 156.3,54.4 156.3,48.6 "/>
<path class="st1" d="M161.4,53.2c0,0.2,0.1,0.4,0.4,0.4s0.4-0.2,0.4-0.4v-3.3c0-0.2-0.1-0.4-0.4-0.4s-0.4,0.2-0.4,0.4V53.2
	L161.4,53.2z M159.1,50.3c0-0.9,0.4-1.8,2.7-1.8c2.3,0,2.7,0.9,2.7,1.8v2.4c0,0.9-0.4,1.8-2.7,1.8c-2.3,0-2.7-0.9-2.7-1.8V50.3
	L159.1,50.3z"/>
<polygon class="st1" points="165.1,48.6 167.1,48.6 168.4,51.5 168.4,51.5 168.4,48.6 170.3,48.6 170.3,54.4 168.4,54.4 167.1,51.2 
	167.1,51.2 167.1,54.4 165.1,54.4 165.1,48.6 "/>
<polygon class="st0" points="7.5,56.3 0.7,56.3 0.7,46.6 7.5,46.6 7.5,56.3 "/>
<polygon class="st0" points="15.8,56.3 8.5,56.3 8.5,46.6 15.8,46.6 15.8,56.3 "/>
<polygon class="st0" points="26.7,56.3 16.7,56.3 16.7,46.6 26.7,46.6 26.7,56.3 "/>
<polygon class="st0" points="39.6,56.3 27.6,56.3 27.6,46.6 39.6,46.6 39.6,56.3 "/>
<polygon class="st0" points="55.8,56.3 40.5,56.3 40.5,46.6 55.8,46.6 55.8,56.3 "/>
<polygon class="st0" points="76.3,56.3 56.9,56.3 56.9,46.6 76.3,46.6 76.3,56.3 "/>
<g>
	<path class="st2" d="M9.4,75.1c-1.6-1.4-2-3.3-2-4.9c0-1.1,0.4-3,1.9-4.5c1-1,2.5-1.8,5.1-1.8c0.7,0,1.6,0.1,2.4,0.2
		c0.6,0.1,1.2,0.2,1.8,0.2c0.1,0,0.2,0.1,0.2,0.2c0,0.1-0.1,0.3-0.1,0.9c0,0.5,0,1.5-0.1,1.7c0,0.2-0.1,0.3-0.2,0.3
		c-0.1,0-0.1-0.1-0.1-0.3c0-0.6-0.3-1.3-0.7-1.7c-0.6-0.5-1.9-0.9-3.3-0.9c-2.2,0-3.3,0.6-3.8,1.2c-1.2,1.2-1.5,2.6-1.5,4.3
		c0,3.2,2.5,6.1,6,6.1c1.3,0,2.2-0.1,2.9-0.8c0.4-0.4,0.6-1.1,0.6-1.4c0-0.2,0.1-0.2,0.2-0.2c0.1,0,0.1,0.1,0.1,0.2
		c0,0.1-0.2,1.6-0.4,2.1c-0.1,0.3-0.1,0.3-0.4,0.5c-0.7,0.3-1.9,0.4-3,0.4C12.4,76.9,10.8,76.3,9.4,75.1L9.4,75.1z"/>
	<path class="st2" d="M24.1,72.6c0,1.9,0.1,2.9,0.4,3.1c0.3,0.2,0.6,0.3,1.8,0.3c0.7,0,1.4,0,1.8-0.5c0.2-0.2,0.3-0.6,0.3-0.8
		c0-0.1,0.1-0.2,0.1-0.2c0.1,0,0.1,0.1,0.1,0.2c0,0.2-0.1,1.1-0.2,1.5c-0.1,0.3-0.1,0.4-0.9,0.4c-1.1,0-2.4-0.1-4.1-0.1
		c-0.6,0-0.9,0.1-1.5,0.1c-0.2,0-0.3,0-0.3-0.1c0,0,0.1-0.1,0.2-0.1c0.1,0,0.3,0,0.4,0c0.3,0,0.4-0.4,0.4-0.8c0.1-0.6,0.1-1.8,0.1-3
		v-2.5c0-2.2,0-2.5,0-3c0-0.5-0.1-0.8-0.7-0.8c-0.1,0-0.3,0-0.4,0c-0.1,0-0.2,0-0.2-0.1c0-0.1,0.1-0.1,0.2-0.1
		c0.7,0,1.7,0.1,1.7,0.1c0.2,0,1.3-0.1,1.7-0.1c0.2,0,0.2,0.1,0.2,0.1c0,0.1-0.1,0.1-0.2,0.1c-0.1,0-0.3,0-0.5,0
		c-0.5,0.1-0.6,0.3-0.6,0.8c0,0.4,0,0.8,0,3V72.6L24.1,72.6z"/>
	<path class="st2" d="M32.1,70.1c0-2.2,0-2.6,0-3c0-0.4-0.1-0.7-0.5-0.8c-0.2,0-0.3,0-0.4-0.1c-0.1,0-0.2,0-0.2-0.1
		c0-0.1,0.1-0.1,0.3-0.1c0.5,0,1.5,0.1,1.5,0.1c0.1,0,1-0.1,1.5-0.1c0.2,0,0.3,0,0.3,0.1c0,0.1-0.1,0.1-0.2,0.1c-0.1,0-0.2,0-0.3,0
		c-0.5,0.1-0.5,0.3-0.6,0.8c0,0.4,0,0.8,0,3v2.5c0,1.3,0,2.4,0.1,3c0.1,0.5,0.1,0.7,0.6,0.8c0.2,0,0.6,0.1,0.6,0.1
		c0.2,0,0.2,0.1,0.2,0.1c0,0.1-0.1,0.1-0.2,0.1c-0.9,0-1.8-0.1-1.9-0.1c-0.1,0-1,0.1-1.5,0.1c-0.2,0-0.3,0-0.3-0.1
		c0-0.1,0.1-0.1,0.2-0.1c0.1,0,0.3,0,0.4-0.1c0.3-0.1,0.3-0.4,0.4-0.8c0.1-0.6,0.1-1.8,0.1-3V70.1L32.1,70.1z"/>
	<path class="st2" d="M39.2,70.1c0-2.2,0-2.6,0-3c0-0.5-0.2-0.7-0.6-0.8c-0.1,0-0.3,0-0.4,0c-0.1,0-0.2,0-0.2-0.1
		c0-0.1,0.1-0.1,0.3-0.1c0.3,0,0.8,0,1.7,0.1c0.1,0,3.1,0,3.4,0c0.3,0,0.5,0,0.7-0.1c0.1,0,0.1-0.1,0.2-0.1c0,0,0.1,0,0.1,0.1
		c0,0.1-0.1,0.3-0.1,0.7c0,0.3,0,0.5-0.1,0.9c0,0.1,0,0.2-0.1,0.2c-0.1,0-0.1-0.1-0.1-0.2c0-0.2-0.1-0.4-0.1-0.5
		c-0.1-0.3-0.3-0.4-1.1-0.5c-0.2,0-1.9,0-1.9,0c0,0-0.1,0-0.1,0.1v3.8c0,0.1,0,0.2,0.1,0.2c0.2,0,1.9,0,2.3,0c0.4,0,0.6-0.1,0.8-0.2
		c0.1-0.1,0.1-0.1,0.2-0.1c0,0,0.1,0,0.1,0.1c0,0.1-0.1,0.4-0.1,0.9c-0.1,0.5-0.1,0.8-0.1,1c0,0.1-0.1,0.2-0.1,0.2
		c-0.1,0-0.1-0.1-0.1-0.2c0-0.1,0-0.3-0.1-0.4c-0.1-0.2-0.2-0.4-0.8-0.5c-0.4,0-1.7-0.1-2-0.1c-0.1,0-0.1,0-0.1,0.1v1.2
		c0,0.5,0,2,0,2.3c0,0.6,0.1,0.9,0.5,1.1c0.3,0.1,0.7,0.1,1.2,0.1c0.3,0,0.9,0,1.3-0.1c0.5-0.1,0.6-0.5,0.8-1.1
		c0-0.2,0.1-0.2,0.1-0.2c0.1,0,0.1,0.1,0.1,0.2c0,0.1-0.1,1.2-0.2,1.4c-0.1,0.3-0.2,0.4-0.7,0.4c-1.1,0-1.6,0-2.2,0
		c-0.6,0-1.4-0.1-2-0.1c-0.4,0-0.7,0.1-1.1,0.1c-0.2,0-0.2,0-0.2-0.1c0-0.1,0.1-0.1,0.2-0.1c0.1,0,0.2,0,0.3-0.1
		c0.3-0.1,0.5-0.3,0.5-1.3c0-0.6,0-1.2,0-2.5V70.1L39.2,70.1z"/>
	<path class="st2" d="M48.4,66.5c0-0.5,0.1-0.7,0.2-0.7c0.1,0,0.4,0.3,0.5,0.4c0.1,0.2,2.5,2.5,4.8,4.9c1.3,1.3,3,3,3.4,3.4
		l-0.2-6.9c0-0.9-0.1-1.2-0.6-1.3c-0.3,0-0.5-0.1-0.7-0.1c-0.2,0-0.2-0.1-0.2-0.1c0-0.1,0.1-0.1,0.3-0.1c0.7,0,1.4,0.1,1.6,0.1
		c0.2,0,0.7-0.1,1.3-0.1c0.2,0,0.2,0,0.2,0.1c0,0.1-0.1,0.1-0.2,0.1c-0.1,0-0.2,0-0.4,0.1c-0.4,0.1-0.5,0.2-0.5,1.2l0,8.3
		c0,0.8,0,0.9-0.2,0.9c-0.1,0-0.3-0.1-1.1-0.9c-0.1,0-2.4-2.3-3.8-3.7c-1.7-1.8-3.4-3.5-3.8-3.9l0.2,6.5c0,1.1,0.1,1.6,0.6,1.7
		c0.3,0.1,0.6,0.1,0.7,0.1c0.1,0,0.2,0.1,0.2,0.1c0,0.1-0.1,0.1-0.3,0.1c-0.9,0-1.5-0.1-1.6-0.1c-0.1,0-0.7,0.1-1.5,0.1
		c-0.2,0-0.3,0-0.3-0.1c0-0.1,0.1-0.1,0.2-0.1c0.1,0,0.3,0,0.5-0.1c0.4-0.1,0.5-0.6,0.5-1.8C48.4,66.7,48.4,69.3,48.4,66.5
		L48.4,66.5z"/>
	<path class="st2" d="M66.7,72.6c0,1.3,0,2.5,0.1,3.1c0.1,0.4,0.1,0.6,0.5,0.7c0.2,0,0.5,0.1,0.7,0.1c0.1,0,0.2,0.1,0.2,0.1
		c0,0.1-0.1,0.1-0.2,0.1c-0.9,0-1.8-0.1-1.9-0.1c-0.1,0-1.1,0.1-1.5,0.1c-0.2,0-0.2,0-0.2-0.1c0-0.1,0-0.1,0.2-0.1
		c0.1,0,0.2,0,0.4,0c0.3,0,0.4-0.2,0.4-0.8c0.1-0.6,0.1-1.8,0.1-3v-5.9c-0.6,0-1.4,0-2.1,0c-1.1,0-1.3,0.2-1.5,0.5
		c-0.1,0.2-0.2,0.4-0.3,0.5c-0.1,0.1-0.1,0.1-0.2,0.1c-0.1,0-0.1-0.1-0.1-0.1c0-0.1,0.2-1.2,0.3-1.6c0.1-0.2,0.1-0.3,0.1-0.3
		c0.1,0,0.4,0.1,0.7,0.2c0.6,0.1,1.1,0.1,1.1,0.1H69c0.5,0,1,0,1.2-0.1c0.2-0.1,0.3-0.1,0.3-0.1c0.1,0,0.1,0.1,0.1,0.1
		c0,0.5,0,1.6,0,1.7c0,0.1-0.1,0.2-0.1,0.2c-0.1,0-0.1-0.1-0.1-0.2c0-0.1,0-0.1,0-0.2c-0.1-0.7-0.3-0.8-2-0.8c-0.6,0-1.2,0-1.6,0
		V72.6L66.7,72.6z"/>
	<path class="st2" d="M73.3,76.5c-0.2-0.1-0.2-0.2-0.2-0.6c0-0.8,0.1-1.3,0.1-1.6c0-0.1,0.1-0.2,0.1-0.2c0.1,0,0.1,0,0.1,0.2
		c0,0.1,0,0.3,0,0.5c0.2,1.1,1.2,1.5,2.2,1.5c1.4,0,2.1-0.9,2.1-1.8c0-0.9-0.4-1.5-1.7-2.5l-0.7-0.5c-1.6-1.3-1.9-2.2-1.9-3.1
		c0-1.5,1.2-2.6,3.1-2.6c0.6,0,1,0.1,1.4,0.1c0.3,0.1,0.5,0.1,0.6,0.1c0.1,0,0.2,0,0.2,0.1c0,0.1-0.1,0.6-0.1,1.6
		c0,0.2,0,0.3-0.1,0.3c-0.1,0-0.1-0.1-0.1-0.2c0-0.1-0.1-0.5-0.2-0.8c-0.1-0.1-0.5-0.8-1.9-0.8c-1,0-1.8,0.6-1.8,1.6
		c0,0.8,0.4,1.3,1.8,2.3l0.4,0.3c1.7,1.3,2.2,2.2,2.2,3.4c0,0.6-0.2,1.7-1.3,2.4c-0.7,0.4-1.5,0.6-2.3,0.6
		C74.6,76.9,73.9,76.8,73.3,76.5L73.3,76.5z"/>
	<path class="st2" d="M89.7,69c0-2.6,0-3,0-3.6c0-0.6-0.2-0.8-0.7-0.9c-0.1,0-0.3,0-0.4,0c-0.2,0-0.3,0-0.3-0.1
		c0-0.1,0.1-0.1,0.3-0.1c0.7,0,1.3,0,1.9,0c0.3,0,3.7,0,4.1,0c0.4,0,0.7,0,0.8-0.1c0.1,0,0.1-0.1,0.2-0.1c0.1,0,0.1,0.1,0.1,0.1
		c0,0.1-0.1,0.3-0.1,0.5c-0.1,0.5-0.1,0.7-0.1,1.2c0,0.2-0.1,0.3-0.2,0.3c-0.1,0-0.1-0.1-0.1-0.2c0-0.2-0.1-0.6-0.3-0.8
		c-0.2-0.2-0.5-0.3-1-0.3c-0.9,0-1.7,0-2.6,0c-0.1,0-0.2,0-0.2,0.2v4.6c0,0.1,0,0.1,0.1,0.1c0.7,0,1.6,0,2.3,0c0.9,0,1.1,0,1.3-0.3
		c0.1-0.1,0.1-0.2,0.2-0.2c0.1,0,0.1,0.1,0.1,0.1c0,0.1-0.1,0.4-0.1,0.9c-0.1,0.5-0.1,0.9-0.1,1.1c0,0.2,0,0.3-0.1,0.3
		c-0.1,0-0.1-0.1-0.1-0.3c0-0.4-0.1-0.9-1-1.1c-0.4,0-2.2,0-2.5,0c-0.1,0-0.1,0-0.1,0.1v1.4c0,1.4,0,2.6,0.1,3.3
		c0.1,0.7,0.2,1.1,0.7,1.2c0.2,0,0.5,0,0.7,0.1c0.2,0,0.2,0.1,0.2,0.1c0,0.1-0.1,0.1-0.3,0.1c-0.9,0-2-0.1-2.1-0.1h-0.2
		c-0.3,0-1.1,0.1-1.5,0.1c-0.2,0-0.3,0-0.3-0.1c0,0,0-0.1,0.2-0.1c0.2,0,0.3,0,0.4-0.1c0.4-0.1,0.5-0.3,0.5-1.1
		c0-0.7,0.1-1.9,0.1-3.4V69L89.7,69z"/>
	<path class="st2" d="M108.1,71.5c0-3.3-2.1-5.2-4.4-5.2c-2.3,0-4.2,1.4-4.2,4.6c0,3.2,1.8,5.4,4.6,5.4
		C105.3,76.3,108.1,75.7,108.1,71.5L108.1,71.5z M98,71.3c0-2.2,1.7-5.5,5.8-5.5c3.3,0,5.8,2,5.8,5.3c0,3.2-2.4,5.7-5.9,5.7
		C99.7,76.9,98,73.9,98,71.3L98,71.3z"/>
	<path class="st2" d="M114.9,71.3c0,0.1,0,0.2,0.1,0.2c0.2,0.1,0.9,0.2,1.5,0.2c0.4,0,0.8,0,1.1-0.2c0.5-0.3,0.8-1,0.8-2.1
		c0-1.8-1-2.8-2.5-2.8c-0.4,0-0.8,0-1,0.1c-0.1,0-0.1,0.1-0.1,0.1V71.3L114.9,71.3z M113.6,70.1c0-2.2,0-2.6,0-3
		c0-0.4-0.2-0.7-0.7-0.8c-0.1,0-0.3,0-0.4,0c-0.1,0-0.2,0-0.2-0.1c0-0.1,0-0.1,0.2-0.1c0.7,0,1.7,0.1,1.8,0.1c0.2,0,1.3-0.1,1.8-0.1
		c0.9,0,2,0.1,2.7,0.6c0.3,0.2,1,0.9,1,2c0,0.9-0.5,2.1-1.8,3.1c1.2,1.5,2.2,2.7,3.1,3.6c0.8,0.8,1.3,0.9,1.8,1c0.1,0,0.5,0,0.5,0
		c0.1,0,0.2,0.1,0.2,0.1c0,0.1-0.1,0.1-0.3,0.1h-1.2c-0.8,0-1.2-0.1-1.5-0.2c-0.7-0.3-1.2-1-2.1-2.2c-0.7-0.8-1.3-1.7-1.6-2
		c-0.1-0.1-0.1-0.1-0.2-0.1l-1.7,0c-0.1,0-0.1,0-0.1,0.1v0.2c0,1.3,0,2.5,0.1,3.1c0.1,0.4,0.1,0.7,0.7,0.8c0.2,0,0.4,0,0.5,0
		c0.2,0,0.2,0.1,0.2,0.1c0,0.1-0.1,0.1-0.2,0.1c-0.9,0-1.8-0.1-1.9-0.1c-0.3,0-1,0.1-1.5,0.1c-0.2,0-0.2,0-0.2-0.1
		c0,0,0.1-0.1,0.2-0.1c0.1,0,0.2,0,0.4,0c0.3,0,0.4-0.2,0.4-0.6c0.1-0.6,0.1-2,0.1-3.2V70.1L113.6,70.1z"/>
	<path class="st2" d="M133.1,71.9c0,2.4,0.1,3.5,0.4,3.8c0.3,0.3,0.7,0.4,2,0.4c0.9,0,1.6,0,2-0.5c0.2-0.3,0.4-0.7,0.4-1
		c0-0.1,0-0.2,0.2-0.2c0.1,0,0.1,0.1,0.1,0.2c0,0.2-0.1,1.2-0.3,1.7c-0.1,0.4-0.2,0.4-1.1,0.4c-1.4,0-2.9-0.1-4.5-0.1
		c-0.5,0-1,0.1-1.6,0.1c-0.2,0-0.3,0-0.3-0.1c0,0,0-0.1,0.1-0.1c0.2,0,0.4,0,0.5-0.1c0.3-0.1,0.4-0.4,0.5-0.9c0.1-0.7,0.1-2,0.1-3.6
		V69c0-2.6,0-3,0-3.6c0-0.6-0.2-0.8-0.7-0.9c-0.1,0-0.4,0-0.6,0c-0.1,0-0.1,0-0.1-0.1c0-0.1,0.1-0.1,0.3-0.1c0.8,0,1.8,0,1.9,0
		s1.3,0,1.8,0c0.2,0,0.3,0,0.3,0.1c0,0.1-0.1,0.1-0.1,0.1c-0.1,0-0.4,0-0.5,0c-0.5,0.1-0.6,0.4-0.7,0.9c0,0.5,0,1,0,3.6V71.9
		L133.1,71.9z"/>
	<path class="st2" d="M141.8,70.1c0-2.2,0-2.6,0-3c0-0.4-0.1-0.7-0.5-0.8c-0.2,0-0.3,0-0.4-0.1c-0.1,0-0.2,0-0.2-0.1
		c0-0.1,0.1-0.1,0.3-0.1c0.5,0,1.5,0.1,1.5,0.1c0.1,0,1-0.1,1.5-0.1c0.2,0,0.3,0,0.3,0.1c0,0.1-0.1,0.1-0.2,0.1c-0.1,0-0.2,0-0.3,0
		c-0.5,0.1-0.5,0.3-0.6,0.8c0,0.4,0,0.8,0,3v2.5c0,1.3,0,2.4,0.1,3c0.1,0.5,0.1,0.7,0.6,0.8c0.2,0,0.6,0.1,0.6,0.1
		c0.2,0,0.2,0.1,0.2,0.1c0,0.1-0.1,0.1-0.2,0.1c-0.9,0-1.8-0.1-1.9-0.1c0,0-1,0.1-1.5,0.1c-0.2,0-0.3,0-0.3-0.1
		c0-0.1,0.1-0.1,0.2-0.1c0.1,0,0.3,0,0.4-0.1c0.3-0.1,0.3-0.4,0.4-0.8c0.1-0.6,0.1-1.8,0.1-3V70.1L141.8,70.1z"/>
	<path class="st2" d="M149,70.1c0-2.2,0-2.6,0-3c0-0.5-0.1-0.7-0.6-0.8c-0.1,0-0.3,0-0.4,0c-0.1,0-0.2-0.1-0.2-0.1
		c0-0.1,0.1-0.1,0.3-0.1c0.6,0,1.2,0.1,1.7,0.1c0.3,0,3.3,0,3.6,0c0.3,0,0.6-0.1,0.8-0.1c0.1,0,0.1,0,0.2,0c0.1,0,0.1,0,0.1,0.1
		c0,0.1-0.1,0.3-0.1,0.5c-0.1,0.4-0.1,0.7-0.1,1.2c0,0.2,0,0.2-0.1,0.2c-0.1,0-0.1-0.1-0.1-0.2c0-0.2-0.1-0.6-0.3-0.8
		c-0.2-0.2-0.5-0.2-0.9-0.2c-0.7,0-1.4,0-2.1,0c-0.1,0-0.1,0-0.1,0.2v3.7c0,0.1,0,0.1,0.1,0.1c0.7,0,1.5,0,2,0c0.7,0,0.9,0,1.1-0.3
		c0.1-0.1,0.1-0.1,0.2-0.1c0.1,0,0.1,0.1,0.1,0.1c0,0.1-0.1,0.4-0.1,0.9c-0.1,0.4-0.1,0.7-0.1,1c0,0.2,0,0.2-0.1,0.2
		c-0.1,0-0.1-0.1-0.1-0.2c0-0.2,0-0.8-0.9-0.9c-0.3,0-1.8,0-2.1,0c-0.1,0-0.1,0-0.1,0.1v1.2c0,1.1,0,2.1,0,2.8c0,0.8,0.1,0.9,0.6,1
		c0.2,0,0.4,0,0.5,0.1c0.1,0,0.2,0.1,0.2,0.1c0,0.1-0.1,0.1-0.2,0.1c-0.9,0-1.8-0.1-1.9-0.1h-0.1c-0.3,0-1,0.1-1.4,0.1
		c-0.2,0-0.2,0-0.2-0.1c0-0.1,0-0.1,0.2-0.1c0.2,0,0.2,0,0.4,0c0.4,0,0.4-0.3,0.5-0.9c0.1-0.6,0.1-1.6,0.1-2.9V70.1L149,70.1z"/>
	<path class="st2" d="M158.2,70.1c0-2.2,0-2.6,0-3c0-0.5-0.1-0.7-0.6-0.8c-0.1,0-0.3,0-0.4,0c-0.1,0-0.2,0-0.2-0.1
		c0-0.1,0.1-0.1,0.3-0.1c0.3,0,0.8,0,1.7,0.1c0.1,0,3.1,0,3.4,0c0.3,0,0.5,0,0.7-0.1c0.1,0,0.1-0.1,0.2-0.1c0,0,0.1,0,0.1,0.1
		c0,0.1-0.1,0.3-0.1,0.7c0,0.3,0,0.5-0.1,0.9c0,0.1,0,0.2-0.1,0.2c-0.1,0-0.1-0.1-0.1-0.2c0-0.2-0.1-0.4-0.1-0.5
		c-0.1-0.3-0.3-0.4-1.1-0.5c-0.2,0-1.9,0-1.9,0c0,0-0.1,0-0.1,0.1v3.8c0,0.1,0,0.2,0.1,0.2c0.2,0,1.9,0,2.3,0c0.4,0,0.6-0.1,0.8-0.2
		c0.1-0.1,0.1-0.1,0.2-0.1c0,0,0.1,0,0.1,0.1c0,0.1-0.1,0.4-0.1,0.9c0,0.5,0,0.8-0.1,1c0,0.1-0.1,0.2-0.1,0.2
		c-0.1,0-0.1-0.1-0.1-0.2c0-0.1,0-0.3-0.1-0.4c-0.1-0.2-0.2-0.4-0.8-0.5c-0.4,0-1.7-0.1-2-0.1c-0.1,0-0.1,0-0.1,0.1v1.2
		c0,0.5,0,2,0,2.3c0,0.6,0.1,0.9,0.5,1.1c0.3,0.1,0.7,0.1,1.2,0.1c0.3,0,0.9,0,1.3-0.1c0.5-0.1,0.6-0.5,0.8-1.1
		c0-0.2,0.1-0.2,0.1-0.2c0.1,0,0.1,0.1,0.1,0.2c0,0.1-0.1,1.2-0.2,1.4c-0.1,0.3-0.2,0.4-0.7,0.4c-1.1,0-1.6,0-2.2,0
		c-0.6,0-1.4-0.1-2-0.1c-0.4,0-0.7,0.1-1.1,0.1c-0.2,0-0.2,0-0.2-0.1c0-0.1,0.1-0.1,0.2-0.1c0.1,0,0.2,0,0.3-0.1
		c0.3-0.1,0.5-0.3,0.5-1.3c0-0.6,0-1.2,0-2.5V70.1L158.2,70.1z"/>
	<g>
		<path class="st2" d="M164.5,75.3c0-0.8,0.6-1.3,1.4-1.3c0.8,0,1.4,0.6,1.4,1.3c0,0.8-0.6,1.3-1.4,1.3
			C165.1,76.6,164.5,76.1,164.5,75.3z M167,75.3c0-0.7-0.5-1.1-1.1-1.1c-0.6,0-1.1,0.5-1.1,1.1c0,0.7,0.5,1.2,1.2,1.2
			C166.5,76.5,167,76,167,75.3z M165.4,74.8c0-0.2,0-0.2-0.2-0.2c0,0-0.1,0-0.1,0c0,0,0,0,0.1,0c0.1,0,0.2,0,0.3,0
			c0.1,0,0.2,0,0.3,0c0.2,0,0.6,0.1,0.6,0.4c0,0.1-0.1,0.3-0.3,0.4l0.2,0.3c0.2,0.2,0.3,0.3,0.3,0.3c0,0,0.1,0,0.1,0c0,0,0,0-0.1,0
			c-0.2,0-0.3,0-0.5-0.3l-0.2-0.3h-0.2v0.2c0,0.2,0,0.2,0.2,0.2c0,0,0.1,0,0.1,0c0,0,0,0-0.1,0c-0.1,0-0.2,0-0.3,0c0,0-0.2,0-0.3,0
			c0,0-0.1,0-0.1,0c0,0,0,0,0.1,0c0.1,0,0.2,0,0.2-0.2C165.4,74.9,165.4,74.9,165.4,74.8z M165.7,75.3c0,0,0.1,0,0.2,0s0.1,0,0.2,0
			c0.1,0,0.1-0.1,0.1-0.2c0-0.2-0.1-0.4-0.3-0.4c0,0-0.1,0-0.1,0V75.3z"/>
	</g>
</g>
</svg>
